HIERARCHY
ROOT Hips
{
	OFFSET 0.000000 87.230942 0.000000
	CHANNELS 6 Xposition Yposition Zposition Xrotation Yrotation Zrotation
	JOINT Pelvis
	{
		OFFSET 0.000000 0.000000 0.000000
		CHANNELS 3 Xrotation Yrotation Zrotation
		JOINT LeftUpLeg
		{
			OFFSET 12.017000 -9.376404 -2.439400
			CHANNELS 3 Xrotation Yrotation Zrotation
			JOINT LeftLeg
			{
				OFFSET -0.007312 -32.846973 2.110600
				CHANNELS 3 Xrotation Yrotation Zrotation
				JOINT LeftFoot
				{
					OFFSET 0.007312 -32.065170 -0.570400
					CHANNELS 3 Xrotation Yrotation Zrotation
					JOINT LeftToeBase
					{
						OFFSET 0.728300 -11.045900 13.180700
						CHANNELS 3 Xrotation Yrotation Zrotation
						End Site
						{
							OFFSET 0.000000 17.212589 0.000000
						}
					}
				}
				JOINT LeftPantLeg
				{
					OFFSET 0.002788 -16.709013 -3.143600
					CHANNELS 3 Xrotation Yrotation Zrotation
					End Site
					{
						OFFSET -0.605125 24.528742 0.000000
					}
				}
			}
			JOINT Left_Butt
			{
				OFFSET -6.630234 1.326584 -3.183700
				CHANNELS 3 Xrotation Yrotation Zrotation
				End Site
				{
					OFFSET -0.498041 20.188049 0.000000
				}
			}
		}
		JOINT RightUpLeg
		{
			OFFSET -11.717000 -9.376404 -2.439400
			CHANNELS 3 Xrotation Yrotation Zrotation
			JOINT RightLeg
			{
				OFFSET -0.003241 -32.846912 2.110600
				CHANNELS 3 Xrotation Yrotation Zrotation
				JOINT RightFoot
				{
					OFFSET 0.003241 -32.065136 -0.570500
					CHANNELS 3 Xrotation Yrotation Zrotation
					JOINT RightToeBase
					{
						OFFSET -0.728300 -11.045901 13.180700
						CHANNELS 3 Xrotation Yrotation Zrotation
						End Site
						{
							OFFSET 0.000000 17.212593 0.000000
						}
					}
				}
				JOINT RightPantLeg
				{
					OFFSET 0.008142 -16.708982 -3.143700
					CHANNELS 3 Xrotation Yrotation Zrotation
					End Site
					{
						OFFSET 0.605088 24.528715 0.000000
					}
				}
			}
			JOINT Right_Butt
			{
				OFFSET 6.630732 1.326584 -3.183700
				CHANNELS 3 Xrotation Yrotation Zrotation
				End Site
				{
					OFFSET 0.498015 20.188240 0.000000
				}
			}
		}
	}
	JOINT Spine
	{
		OFFSET -0.062400 7.848404 3.918300
		CHANNELS 3 Xrotation Yrotation Zrotation
		JOINT Spine1
		{
			OFFSET -0.072800 11.422302 0.713400
			CHANNELS 3 Xrotation Yrotation Zrotation
			JOINT Spine2
			{
				OFFSET -0.083200 13.054001 -1.931600
				CHANNELS 3 Xrotation Yrotation Zrotation
				JOINT Neck
				{
					OFFSET -0.092200 14.121796 -5.138800
					CHANNELS 3 Xrotation Yrotation Zrotation
					JOINT Head
					{
						OFFSET 0.000200 10.447403 -0.842000
						CHANNELS 3 Xrotation Yrotation Zrotation
						JOINT Visor
						{
							OFFSET 0.457100 25.671204 16.550400
							CHANNELS 3 Xrotation Yrotation Zrotation
							End Site
							{
								OFFSET 0.000000 26.061493 0.000000
							}
						}
						JOINT HairMidA
						{
							OFFSET 0.459400 31.585403 8.437400
							CHANNELS 3 Xrotation Yrotation Zrotation
							End Site
							{
								OFFSET 0.000000 26.061493 0.000000
							}
						}
						JOINT HairMidB
						{
							OFFSET 0.464000 33.309204 -8.389700
							CHANNELS 3 Xrotation Yrotation Zrotation
							End Site
							{
								OFFSET 0.000000 26.061493 0.000000
							}
						}
						JOINT HairMidC
						{
							OFFSET 0.466600 27.991196 -17.375099
							CHANNELS 3 Xrotation Yrotation Zrotation
							End Site
							{
								OFFSET 0.000000 26.061493 0.000000
							}
						}
						JOINT HairMidD
						{
							OFFSET 0.467700 17.888092 -21.169500
							CHANNELS 3 Xrotation Yrotation Zrotation
							End Site
							{
								OFFSET 0.000000 26.061493 0.000000
							}
						}
						JOINT HairMidE
						{
							OFFSET 5.325700 3.514603 -14.369699
							CHANNELS 3 Xrotation Yrotation Zrotation
							End Site
							{
								OFFSET 0.000000 26.061493 0.000000
							}
						}
						JOINT HairMidF
						{
							OFFSET -4.394100 3.514603 -14.372400
							CHANNELS 3 Xrotation Yrotation Zrotation
							End Site
							{
								OFFSET 0.000000 26.061493 0.000000
							}
						}
						JOINT HairLeftA
						{
							OFFSET 15.319900 25.746506 2.623300
							CHANNELS 3 Xrotation Yrotation Zrotation
							End Site
							{
								OFFSET 0.000000 26.061493 0.000000
							}
						}
						JOINT HairLeftB
						{
							OFFSET 12.619500 29.289398 -8.731499
							CHANNELS 3 Xrotation Yrotation Zrotation
							End Site
							{
								OFFSET 0.000000 26.061493 0.000000
							}
						}
						JOINT HairLeftC
						{
							OFFSET 15.714800 15.959900 2.909800
							CHANNELS 3 Xrotation Yrotation Zrotation
							End Site
							{
								OFFSET 0.000000 26.061493 0.000000
							}
						}
						JOINT HairLeftD
						{
							OFFSET 16.101700 18.437408 -7.553200
							CHANNELS 3 Xrotation Yrotation Zrotation
							End Site
							{
								OFFSET 0.000000 26.061493 0.000000
							}
						}
						JOINT HairLeftE
						{
							OFFSET 9.731900 17.915009 -18.316799
							CHANNELS 3 Xrotation Yrotation Zrotation
							End Site
							{
								OFFSET 0.000000 26.061493 0.000000
							}
						}
						JOINT HairLeftF
						{
							OFFSET 11.204300 4.953598 -9.668100
							CHANNELS 3 Xrotation Yrotation Zrotation
							End Site
							{
								OFFSET 0.000000 26.061493 0.000000
							}
						}
						JOINT HairRightA
						{
							OFFSET -14.397900 25.746307 2.615100
							CHANNELS 3 Xrotation Yrotation Zrotation
							End Site
							{
								OFFSET 0.000000 26.061493 0.000000
							}
						}
						JOINT HairRightB
						{
							OFFSET -11.691200 29.289200 -8.738199
							CHANNELS 3 Xrotation Yrotation Zrotation
							End Site
							{
								OFFSET 0.000000 26.061493 0.000000
							}
						}
						JOINT HairRightC
						{
							OFFSET -14.792900 15.959702 2.901400
							CHANNELS 3 Xrotation Yrotation Zrotation
							End Site
							{
								OFFSET 0.000000 26.061493 0.000000
							}
						}
						JOINT HairRightD
						{
							OFFSET -15.174000 18.437195 -7.561900
							CHANNELS 3 Xrotation Yrotation Zrotation
							End Site
							{
								OFFSET 0.000000 26.061493 0.000000
							}
						}
						JOINT HairRightE
						{
							OFFSET -8.798200 17.914902 -18.322001
							CHANNELS 3 Xrotation Yrotation Zrotation
							End Site
							{
								OFFSET 0.000000 26.061493 0.000000
							}
						}
						JOINT HairRightF
						{
							OFFSET -10.275200 4.953506 -9.674099
							CHANNELS 3 Xrotation Yrotation Zrotation
							End Site
							{
								OFFSET 0.000000 26.061493 0.000000
							}
						}
					}
				}
				JOINT LeftShoulder
				{
					OFFSET 5.133500 7.341202 -1.867600
					CHANNELS 3 Xrotation Yrotation Zrotation
					JOINT LeftArm
					{
						OFFSET 8.072663 0.936867 -2.176600
						CHANNELS 3 Xrotation Yrotation Zrotation
						JOINT LeftForeArm
						{
							OFFSET 31.271999 0.000000 0.000000
							CHANNELS 3 Xrotation Yrotation Zrotation
							JOINT LeftHand
							{
								OFFSET 31.771030 0.000000 0.000000
								CHANNELS 3 Xrotation Yrotation Zrotation
								JOINT LeftHandThumb1
								{
									OFFSET 2.886520 -2.557846 4.416640
									CHANNELS 3 Xrotation Yrotation Zrotation
									JOINT LeftHandThumb2
									{
										OFFSET 2.371025 -1.368912 1.368911
										CHANNELS 3 Xrotation Yrotation Zrotation
										JOINT LeftHandThumb3
										{
											OFFSET 2.243378 -1.295212 1.295213
											CHANNELS 3 Xrotation Yrotation Zrotation
											End Site
											{
												OFFSET -0.332611 2.876945 0.020015
											}
										}
									}
								}
								JOINT LeftHandIndex1
								{
									OFFSET 8.568985 -0.641945 3.119977
									CHANNELS 3 Xrotation Yrotation Zrotation
									JOINT LeftHandIndex2
									{
										OFFSET 3.348503 0.000000 0.000000
										CHANNELS 3 Xrotation Yrotation Zrotation
										JOINT LeftHandIndex3
										{
											OFFSET 3.314552 0.000000 0.000000
											CHANNELS 3 Xrotation Yrotation Zrotation
											End Site
											{
												OFFSET -1.032898 3.075485 0.678796
											}
										}
									}
								}
								JOINT LeftHandMiddle1
								{
									OFFSET 8.124603 0.000000 0.000000
									CHANNELS 3 Xrotation Yrotation Zrotation
									JOINT LeftHandMiddle2
									{
										OFFSET 4.166275 0.000000 0.000000
										CHANNELS 3 Xrotation Yrotation Zrotation
										JOINT LeftHandMiddle3
										{
											OFFSET 3.018135 0.000000 0.000000
											CHANNELS 3 Xrotation Yrotation Zrotation
											End Site
											{
												OFFSET -1.032700 2.767982 0.617226
											}
										}
									}
								}
								JOINT LeftHandRing1
								{
									OFFSET 8.571686 -0.031357 -2.884048
									CHANNELS 3 Xrotation Yrotation Zrotation
									JOINT LeftHandRing2
									{
										OFFSET 3.671181 0.000000 0.000000
										CHANNELS 3 Xrotation Yrotation Zrotation
										JOINT LeftHandRing3
										{
											OFFSET 2.728851 0.000000 0.000000
											CHANNELS 3 Xrotation Yrotation Zrotation
											End Site
											{
												OFFSET -0.815796 2.539223 0.577389
											}
										}
									}
								}
								JOINT LeftHandPinky1
								{
									OFFSET 7.854515 -0.675232 -5.213020
									CHANNELS 3 Xrotation Yrotation Zrotation
									JOINT LeftHandPinky2
									{
										OFFSET 3.068596 0.000000 0.000000
										CHANNELS 3 Xrotation Yrotation Zrotation
										JOINT LeftHandPinky3
										{
											OFFSET 2.396042 0.000000 0.000000
											CHANNELS 3 Xrotation Yrotation Zrotation
											End Site
											{
												OFFSET -0.524597 2.267998 0.567429
											}
										}
									}
								}
							}
							JOINT LeftSleeve
							{
								OFFSET 19.684509 -0.200119 0.476146
								CHANNELS 3 Xrotation Yrotation Zrotation
								End Site
								{
									OFFSET -0.031017 25.731133 -0.002868
								}
							}
						}
					}
				}
				JOINT RightShoulder
				{
					OFFSET -4.395900 7.341202 -1.870200
					CHANNELS 3 Xrotation Yrotation Zrotation
					JOINT RightArm
					{
						OFFSET -8.071453 0.936867 -2.181100
						CHANNELS 3 Xrotation Yrotation Zrotation
						JOINT RightForeArm
						{
							OFFSET -31.272011 0.000000 0.000000
							CHANNELS 3 Xrotation Yrotation Zrotation
							JOINT RightHand
							{
								OFFSET -31.771019 0.000000 0.000000
								CHANNELS 3 Xrotation Yrotation Zrotation
								JOINT RightHandThumb1
								{
									OFFSET -2.886520 -2.557808 4.416626
									CHANNELS 3 Xrotation Yrotation Zrotation
									JOINT RightHandThumb2
									{
										OFFSET -2.371056 -1.368927 1.368928
										CHANNELS 3 Xrotation Yrotation Zrotation
										JOINT RightHandThumb3
										{
											OFFSET -2.243362 -1.295204 1.295206
											CHANNELS 3 Xrotation Yrotation Zrotation
											End Site
											{
												OFFSET 0.332642 2.876938 0.020047
											}
										}
									}
								}
								JOINT RightHandIndex1
								{
									OFFSET -8.568993 -0.641953 3.120017
									CHANNELS 3 Xrotation Yrotation Zrotation
									JOINT RightHandIndex2
									{
										OFFSET -3.348518 0.000000 0.000000
										CHANNELS 3 Xrotation Yrotation Zrotation
										JOINT RightHandIndex3
										{
											OFFSET -3.314552 0.000000 0.000000
											CHANNELS 3 Xrotation Yrotation Zrotation
											End Site
											{
												OFFSET 1.032898 3.075478 0.678804
											}
										}
									}
								}
								JOINT RightHandMiddle1
								{
									OFFSET -8.124588 0.000000 0.000000
									CHANNELS 3 Xrotation Yrotation Zrotation
									JOINT RightHandMiddle2
									{
										OFFSET -4.166275 0.000000 0.000000
										CHANNELS 3 Xrotation Yrotation Zrotation
										JOINT RightHandMiddle3
										{
											OFFSET -3.018097 0.000000 0.000000
											CHANNELS 3 Xrotation Yrotation Zrotation
											End Site
											{
												OFFSET 1.032700 2.767937 0.617197
											}
										}
									}
								}
								JOINT RightHandRing1
								{
									OFFSET -8.571747 -0.031349 -2.884061
									CHANNELS 3 Xrotation Yrotation Zrotation
									JOINT RightHandRing2
									{
										OFFSET -3.671204 0.000000 0.000000
										CHANNELS 3 Xrotation Yrotation Zrotation
										JOINT RightHandRing3
										{
											OFFSET -2.728874 0.000000 0.000000
											CHANNELS 3 Xrotation Yrotation Zrotation
											End Site
											{
												OFFSET 0.815804 2.539261 0.577413
											}
										}
									}
								}
								JOINT RightHandPinky1
								{
									OFFSET -7.854561 -0.675247 -5.212970
									CHANNELS 3 Xrotation Yrotation Zrotation
									JOINT RightHandPinky2
									{
										OFFSET -3.068550 0.000000 0.000000
										CHANNELS 3 Xrotation Yrotation Zrotation
										JOINT RightHandPinky3
										{
											OFFSET -2.395981 0.000000 0.000000
											CHANNELS 3 Xrotation Yrotation Zrotation
											End Site
											{
												OFFSET 0.524605 2.267952 0.567413
											}
										}
									}
								}
							}
							JOINT RightSleeve
							{
								OFFSET -19.684753 -0.200165 0.476065
								CHANNELS 3 Xrotation Yrotation Zrotation
								End Site
								{
									OFFSET 0.031342 25.731255 -0.002917
								}
							}
						}
					}
				}
				JOINT Hood
				{
					OFFSET 0.369700 14.447800 -5.317800
					CHANNELS 3 Xrotation Yrotation Zrotation
					JOINT Hood1
					{
						OFFSET 0.001700 -5.553802 -5.895100
						CHANNELS 3 Xrotation Yrotation Zrotation
						JOINT Hood2
						{
							OFFSET -0.000200 -8.380501 0.763600
							CHANNELS 3 Xrotation Yrotation Zrotation
							End Site
							{
								OFFSET 0.000000 8.415215 0.000000
							}
						}
					}
				}
				JOINT Left_Breast
				{
					OFFSET 5.682500 3.120102 3.188800
					CHANNELS 3 Xrotation Yrotation Zrotation
					End Site
					{
						OFFSET 0.000000 10.528564 0.000000
					}
				}
				JOINT Right_Breast
				{
					OFFSET -4.947600 3.120102 3.185900
					CHANNELS 3 Xrotation Yrotation Zrotation
					End Site
					{
						OFFSET 0.000000 10.528564 0.000000
					}
				}
				JOINT Whistle
				{
					OFFSET 0.368200 11.471298 0.095400
					CHANNELS 3 Xrotation Yrotation Zrotation
					JOINT Whistle1
					{
						OFFSET -0.002000 -6.349899 7.479800
						CHANNELS 3 Xrotation Yrotation Zrotation
						JOINT Whistle2
						{
							OFFSET -0.001300 -8.217598 4.717600
							CHANNELS 3 Xrotation Yrotation Zrotation
							End Site
							{
								OFFSET 0.000000 9.475479 0.000000
							}
						}
					}
				}
			}
		}
		JOINT Belly
		{
			OFFSET 0.212400 1.593002 3.163700
			CHANNELS 3 Xrotation Yrotation Zrotation
			End Site
			{
				OFFSET 0.000000 7.496635 0.000000
			}
		}
	}
	JOINT FitGrandmaFacialAnim_Joint
	{
		OFFSET 1.150000 -86.211197 -1.220100
		CHANNELS 3 Xrotation Yrotation Zrotation
		End Site
		{
			OFFSET 0.000000 31.666618 0.000000
		}
	}
}
MOTION
Frames: 4
Frame Time: 0.016667
8.959465 168.161163 63.241447 6.083048 18.727936 0.508758 0.000000 0.000000 0.000000 -31.026602 22.173601 8.790634 60.309266 -5.143773 -0.242957 0.383916 -0.165875 -13.347740 0.000002 -0.000001 -0.000000 -0.000000 0.000001 -0.000001 -0.000003 -0.000001 0.000001 -46.014769 0.919671 -20.455214 21.971344 9.337946 1.075672 10.967371 18.818284 23.794719 -0.000000 0.000003 -0.000000 -0.000003 0.000001 -0.000000 0.000002 -0.000001 -0.000001 7.301254 -2.092744 -4.870926 14.411474 -2.597693 1.282298 14.393229 -2.607810 1.534273 -3.431903 0.659722 -7.971156 -4.476598 -10.464169 13.497314 0.000000 -0.000000 0.000001 0.000000 -0.000000 0.000001 0.000000 -0.000000 0.000001 0.000000 -0.000000 0.000001 0.000000 -0.000000 0.000001 0.000000 -0.000000 0.000001 0.000000 -0.000000 0.000001 0.000000 -0.000000 0.000001 0.000000 -0.000000 0.000001 0.000000 -0.000000 0.000001 0.000000 -0.000000 0.000001 0.000000 -0.000000 0.000001 0.000000 -0.000000 0.000001 0.000000 -0.000000 0.000001 0.000000 -0.000000 0.000001 0.000000 -0.000000 0.000001 0.000000 -0.000000 0.000001 0.000000 -0.000000 0.000001 0.000000 -0.000000 0.000001 -1.645778 11.892281 6.117616 -105.464398 -55.286645 -116.659057 -0.089890 -92.899336 -0.089830 -8.263630 -7.356827 2.186923 -3.500383 23.141907 9.972922 -2.408862 12.775517 10.381915 0.000000 0.000002 -0.000001 0.080935 1.054714 -8.775053 0.139268 1.380633 -11.520128 0.000003 -0.000003 0.000002 0.080627 1.052813 -8.759067 0.139676 1.382519 -11.536109 0.000003 -0.000001 -0.000005 0.080929 1.054722 -8.775064 0.139285 1.380639 -11.520112 0.000000 -0.000002 0.000002 0.683438 5.064144 -8.296803 0.133618 -2.674903 -12.020599 0.000000 0.000001 -0.000000 -0.000001 -0.000001 -0.000003 2.075043 14.947587 1.840490 -36.947290 40.337557 63.095040 0.000011 48.043848 -0.000004 31.938907 2.596843 0.748854 -7.605205 -2.521686 -16.077635 4.602784 -15.232229 -8.617248 0.000000 0.000001 -0.000000 0.672569 -2.988274 25.363214 0.151862 -1.448132 11.972207 -0.000000 -0.000000 0.000001 0.672582 -2.988282 25.363204 0.151863 -1.448114 11.972211 0.000002 0.000000 -0.000001 0.672572 -2.988274 25.363195 0.151859 -1.448128 11.972222 -0.000001 -0.000002 0.000002 0.672584 -2.988292 25.363195 0.151851 -1.448116 11.972214 -0.000001 -0.000005 0.000001 -0.000001 0.000002 0.000001 -0.000004 0.000001 -0.000000 -0.000004 0.000001 -0.000000 -0.000004 0.000001 -0.000000 -0.000004 0.000001 -0.000000 -0.000004 0.000001 -0.000000 -0.000004 0.000001 -0.000000 -0.000001 -0.000000 0.000001 -0.000001 -0.000000 0.000001 -0.000000 -0.000000 -0.000000 0.000000 0.000000 0.000000 
9.041208 165.698059 65.423195 5.019332 18.522479 0.991335 0.000000 -0.000002 0.000000 -30.206580 22.160868 8.410419 59.098362 -4.344042 -0.202921 1.691405 -0.479287 -13.387035 0.000000 0.000002 -0.000002 0.000001 -0.000000 0.000000 -0.000003 0.000000 0.000000 -44.062541 0.405583 -20.385412 21.880388 8.914550 1.111838 12.291707 19.719128 22.889967 0.000000 0.000002 -0.000001 0.000003 0.000000 0.000000 0.000005 -0.000001 -0.000000 7.343194 -1.940300 -4.888926 14.383881 -2.380560 1.213554 14.364192 -2.405677 1.448310 -3.302232 0.547482 -7.776381 -3.709827 -10.667864 13.127597 0.000000 -0.000000 -0.000000 0.000000 -0.000000 -0.000000 0.000000 -0.000000 -0.000000 0.000000 -0.000000 -0.000000 0.000000 -0.000000 -0.000000 0.000000 -0.000000 -0.000000 0.000000 -0.000000 -0.000000 0.000000 -0.000000 -0.000000 0.000000 -0.000000 -0.000000 0.000000 -0.000000 -0.000000 0.000000 -0.000000 -0.000000 0.000000 -0.000000 -0.000000 0.000000 -0.000000 -0.000000 0.000000 -0.000000 -0.000000 0.000000 -0.000000 -0.000000 0.000000 -0.000000 -0.000000 0.000000 -0.000000 -0.000000 0.000000 -0.000000 -0.000000 0.000000 -0.000000 -0.000000 -1.522762 11.317938 5.579481 -102.529411 -55.783002 -113.588812 0.009167 -91.991891 0.009222 -9.879200 -6.284507 1.313731 -3.500345 23.141772 9.972857 -2.408838 12.775485 10.381838 0.000001 -0.000000 0.000002 0.080930 1.054712 -8.774993 0.139256 1.380619 -11.520040 0.000002 -0.000001 0.000000 0.080623 1.052807 -8.759018 0.139657 1.382514 -11.536028 -0.000002 -0.000005 -0.000001 0.080929 1.054716 -8.774992 0.139264 1.380634 -11.520040 0.000000 0.000000 -0.000001 0.683418 5.064137 -8.296760 0.133626 -2.674914 -12.020518 -0.000003 0.000001 -0.000003 -0.000002 -0.000002 -0.000000 2.084706 14.908507 1.923963 -37.666123 40.172594 63.297740 0.000005 48.302681 -0.000014 32.519415 2.624578 1.993033 -7.604260 -2.522131 -16.076194 4.602788 -15.232182 -8.617186 -0.000003 0.000002 0.000000 0.672566 -2.988250 25.363033 0.151854 -1.448114 11.972131 0.000001 0.000001 0.000003 0.672571 -2.988263 25.363032 0.151851 -1.448108 11.972131 -0.000001 -0.000000 -0.000003 0.672571 -2.988270 25.363026 0.151853 -1.448108 11.972126 -0.000000 -0.000004 0.000004 0.672573 -2.988275 25.363025 0.151853 -1.448101 11.972124 -0.000000 -0.000002 0.000003 0.000000 -0.000001 0.000001 0.000001 0.000000 0.000000 0.000001 0.000000 0.000000 0.000001 0.000000 0.000000 0.000001 0.000000 0.000000 0.000001 0.000000 0.000000 0.000001 -0.000000 0.000000 -0.000004 -0.000000 -0.000001 -0.000004 -0.000000 -0.000001 0.000000 0.000000 -0.000000 0.000000 -0.000002 0.000000 
9.130816 163.002609 67.613235 3.931824 18.189115 1.449970 0.000000 -0.000001 -0.000000 -29.155622 22.011989 8.082601 57.594901 -4.056759 -0.186936 2.742212 -0.728427 -13.761123 0.000000 0.000001 -0.000000 0.000002 -0.000001 0.000000 -0.000001 -0.000004 0.000001 -42.087462 -0.215388 -20.170163 21.951868 8.570225 1.131969 13.522851 20.079837 21.764673 -0.000000 0.000001 -0.000001 0.000001 -0.000000 0.000001 0.000004 0.000001 -0.000000 7.373382 -1.769303 -4.880016 14.331765 -2.196020 1.072486 14.312112 -2.231725 1.291075 -3.139339 0.436493 -7.492982 -2.915446 -10.754771 12.844841 0.000001 -0.000000 0.000000 0.000001 -0.000000 0.000000 0.000001 -0.000000 0.000000 0.000001 -0.000000 0.000000 0.000001 -0.000000 0.000000 0.000001 -0.000000 0.000000 0.000001 -0.000000 0.000000 0.000001 -0.000000 0.000000 0.000001 -0.000000 0.000000 0.000001 -0.000000 0.000000 0.000001 -0.000000 0.000000 0.000001 -0.000000 0.000000 0.000001 -0.000000 0.000000 0.000001 -0.000000 0.000000 0.000001 -0.000000 0.000000 0.000001 -0.000000 0.000000 0.000001 -0.000000 0.000000 0.000001 -0.000000 0.000000 0.000001 -0.000000 0.000000 -1.447296 10.959920 5.211207 -99.827702 -56.207215 -110.766715 -0.003909 -90.695821 -0.003693 -11.177062 -5.296984 0.456587 -3.500309 23.141574 9.972817 -2.408761 12.775453 10.381742 0.000001 -0.000001 -0.000000 0.080923 1.054700 -8.774903 0.139278 1.380607 -11.519922 0.000002 -0.000001 0.000004 0.080634 1.052798 -8.758913 0.139649 1.382500 -11.535904 0.000004 -0.000000 -0.000002 0.080925 1.054708 -8.774899 0.139275 1.380618 -11.519919 0.000003 0.000000 -0.000001 0.683421 5.064136 -8.296650 0.133606 -2.674932 -12.020413 -0.000001 -0.000001 -0.000000 0.000003 -0.000002 0.000001 2.080151 14.739085 2.062841 -38.227835 39.650976 63.883709 0.000029 49.554395 -0.000031 33.231777 2.131658 3.145255 -7.602971 -2.522632 -16.074133 4.602788 -15.232100 -8.617091 -0.000000 0.000002 -0.000001 0.672551 -2.988213 25.362763 0.151860 -1.448107 11.972000 0.000000 0.000000 0.000001 0.672546 -2.988217 25.362763 0.151876 -1.448103 11.971999 0.000000 0.000000 0.000000 0.672558 -2.988229 25.362758 0.151866 -1.448104 11.971993 0.000001 0.000000 -0.000000 0.672549 -2.988240 25.362758 0.151871 -1.448098 11.971997 -0.000003 0.000001 0.000000 -0.000003 0.000000 -0.000003 0.000001 0.000000 0.000000 0.000001 0.000000 0.000000 0.000001 0.000000 0.000000 0.000001 0.000000 0.000000 0.000001 0.000000 0.000000 0.000001 -0.000000 0.000000 -0.000002 0.000000 -0.000000 -0.000002 0.000000 -0.000000 0.000000 -0.000000 0.000000 0.000000 -0.000001 -0.000000 
9.231621 160.085175 69.806198 2.859748 17.778060 1.854350 0.000000 0.000001 -0.000000 -27.945507 21.754736 7.771198 55.772671 -4.103898 -0.186656 3.596354 -0.929640 -14.388162 0.000000 0.000002 0.000000 -0.000000 0.000001 -0.000000 -0.000003 -0.000002 -0.000000 -40.083129 -0.940144 -19.845709 22.126444 8.285511 1.133639 14.652832 19.914006 20.536410 -0.000000 0.000002 0.000000 0.000001 0.000000 0.000001 0.000001 0.000001 -0.000000 7.385104 -1.587317 -4.829481 14.253383 -2.029490 0.889712 14.234360 -2.070371 1.095188 -2.973555 0.335317 -7.170156 -2.167496 -10.752426 12.661431 -0.000002 0.000000 0.000000 -0.000002 0.000000 0.000000 -0.000002 0.000000 0.000000 -0.000002 0.000000 0.000000 -0.000002 0.000000 0.000000 -0.000002 0.000000 0.000000 -0.000002 0.000000 0.000000 -0.000002 0.000000 0.000000 -0.000002 0.000000 0.000000 -0.000002 0.000000 0.000000 -0.000002 0.000000 0.000000 -0.000002 0.000000 0.000000 -0.000002 0.000000 0.000000 -0.000002 0.000000 0.000000 -0.000002 0.000000 0.000000 -0.000002 0.000000 0.000000 -0.000002 0.000000 0.000000 -0.000002 0.000000 0.000000 -0.000002 0.000000 0.000000 -1.416797 10.842151 5.015823 -97.509256 -56.558484 -108.357891 0.008526 -89.117836 0.008593 -12.155386 -4.424776 -0.433194 -3.500273 23.141379 9.972763 -2.408700 12.775404 10.381621 0.000002 -0.000002 -0.000003 0.080917 1.054690 -8.774817 0.139263 1.380597 -11.519809 -0.000001 -0.000002 0.000002 0.080631 1.052792 -8.758815 0.139643 1.382484 -11.535798 0.000001 -0.000002 -0.000002 0.080911 1.054697 -8.774825 0.139271 1.380606 -11.519789 0.000003 -0.000001 -0.000001 0.683409 5.064129 -8.296561 0.133607 -2.674943 -12.020286 0.000000 0.000000 -0.000001 -0.000001 -0.000000 -0.000000 2.065508 14.495185 2.197897 -38.516420 38.803930 64.754947 0.000011 51.747067 -0.000015 34.057584 1.236734 4.088621 -7.601776 -2.522975 -16.072132 4.602782 -15.232036 -8.617000 -0.000000 -0.000001 0.000002 0.672537 -2.988189 25.362507 0.151831 -1.448101 11.971894 -0.000001 0.000002 0.000002 0.672537 -2.988197 25.362506 0.151845 -1.448089 11.971886 0.000001 0.000001 -0.000003 0.672546 -2.988203 25.362502 0.151835 -1.448086 11.971888 -0.000003 0.000001 -0.000002 0.672543 -2.988205 25.362500 0.151837 -1.448094 11.971889 -0.000003 -0.000003 -0.000000 -0.000002 0.000000 0.000001 -0.000001 -0.000000 0.000000 -0.000001 -0.000000 0.000000 -0.000001 -0.000000 0.000000 -0.000001 -0.000000 0.000000 -0.000001 -0.000000 0.000000 -0.000001 -0.000000 -0.000000 -0.000001 0.000001 -0.000001 -0.000001 0.000001 -0.000001 0.000001 0.000001 -0.000000 0.000000 0.000001 -0.000000 
